<?xml version="1.0" standalone="no"?>
<!DOCTYPE svg PUBLIC "-//W3C//DTD SVG 20010904//EN"
 "http://www.w3.org/TR/2001/REC-SVG-20010904/DTD/svg10.dtd">
<svg version="1.0" xmlns="http://www.w3.org/2000/svg"
 width="2048.000000pt" height="2048.000000pt" viewBox="0 0 2048.000000 2048.000000"
 preserveAspectRatio="xMidYMid meet">

<g transform="translate(0.000000,2048.000000) scale(0.100000,-0.100000)"
fill="#000000" stroke="none">
<path d="M10030 16295 c0 -3 7 -22 16 -43 30 -71 93 -267 108 -337 27 -119 47
-312 53 -510 12 -385 -36 -551 -275 -965 -31 -54 -172 -242 -189 -253 -7 -4
-20 -22 -29 -39 -17 -32 -72 -107 -124 -167 -17 -19 -30 -38 -30 -42 0 -5 -6
-17 -14 -26 -43 -53 -84 -113 -101 -148 -11 -22 -28 -49 -38 -60 -61 -68 -81
-94 -102 -125 -12 -19 -30 -41 -39 -49 -9 -7 -16 -19 -16 -25 0 -7 -11 -23
-25 -36 -14 -13 -25 -29 -25 -36 0 -6 -6 -14 -13 -17 -8 -3 -27 -30 -43 -61
-16 -31 -35 -56 -41 -56 -7 0 -13 -5 -13 -10 0 -11 -43 -76 -93 -141 -15 -20
-27 -39 -27 -44 0 -4 -9 -17 -20 -29 -51 -54 -80 -88 -150 -176 -42 -52 -91
-110 -109 -127 -35 -36 -111 -133 -111 -144 0 -3 -16 -26 -35 -50 -19 -24 -35
-48 -35 -52 0 -5 -20 -41 -43 -80 -24 -40 -47 -84 -51 -99 -3 -16 -13 -28 -21
-28 -9 0 -15 -10 -15 -26 0 -14 -4 -23 -10 -19 -5 3 -10 -3 -10 -13 0 -11 -7
-25 -15 -32 -8 -6 -17 -22 -21 -33 -4 -12 -17 -35 -30 -50 -13 -16 -24 -34
-24 -41 0 -7 -12 -28 -26 -47 -14 -19 -40 -65 -59 -104 -69 -147 -95 -204 -95
-212 0 -4 -14 -44 -31 -88 -30 -81 -43 -173 -54 -403 -3 -46 -7 -87 -10 -92
-3 -5 -1 -11 4 -14 5 -3 7 -23 4 -44 -3 -24 3 -71 17 -123 13 -46 26 -111 31
-145 11 -81 67 -228 136 -355 31 -57 65 -122 76 -144 21 -43 41 -74 161 -255
139 -211 332 -461 448 -583 28 -29 73 -78 101 -109 27 -32 55 -58 60 -58 6 0
81 -69 166 -153 228 -224 525 -456 769 -601 80 -47 143 -92 159 -113 32 -41
54 -55 73 -43 11 7 6 20 -26 67 -96 141 -226 467 -292 733 -12 47 -48 189 -81
316 -67 256 -96 417 -106 574 -4 58 -13 153 -21 212 -7 59 -18 190 -24 290 -6
101 -13 193 -16 206 -2 12 -4 165 -5 340 0 365 9 470 66 787 43 238 75 350
206 724 23 65 53 131 123 271 121 239 188 365 197 368 5 2 9 10 9 18 0 8 4 14
9 14 11 0 6 -19 -43 -160 -21 -58 -48 -145 -60 -195 -13 -49 -39 -144 -59
-210 -32 -112 -67 -251 -101 -405 -8 -36 -20 -85 -25 -110 -31 -135 -63 -329
-77 -463 -8 -83 -19 -158 -23 -166 -19 -36 -34 -300 -27 -476 3 -99 10 -306
16 -460 10 -289 25 -550 35 -620 30 -202 77 -479 96 -565 10 -47 32 -125 49
-175 17 -49 35 -109 40 -133 12 -56 17 -62 45 -62 15 0 29 9 36 23 7 12 25 36
41 52 15 17 69 72 118 123 49 51 97 106 107 122 9 17 21 30 25 30 4 0 8 5 8
12 0 9 64 88 142 173 30 33 87 105 146 185 31 41 76 98 101 126 25 29 51 58
56 65 173 231 370 516 425 614 61 111 130 256 145 305 4 14 15 36 25 50 23 33
62 130 104 256 19 56 39 110 45 121 13 26 52 278 102 668 18 139 19 147 29
283 6 74 14 161 19 195 11 77 16 245 15 447 -2 199 -40 419 -145 833 -52 206
-87 315 -117 357 -10 14 -29 59 -42 100 -13 41 -61 152 -106 245 -45 94 -87
186 -93 205 -17 51 -145 280 -202 363 -27 40 -86 125 -130 190 -69 102 -239
321 -296 382 -10 11 -63 72 -117 135 -54 63 -108 126 -120 140 -22 24 -139
132 -261 240 -33 29 -77 68 -97 87 -21 19 -38 31 -38 28z"/>
<path d="M13955 11989 c-201 -44 -423 -106 -560 -158 -401 -150 -685 -282
-872 -403 -54 -35 -105 -67 -115 -73 -30 -17 -160 -108 -223 -155 -155 -116
-368 -313 -474 -440 -26 -30 -70 -79 -99 -109 -29 -30 -52 -58 -52 -63 0 -4
-12 -21 -27 -37 -55 -57 -164 -192 -238 -295 -28 -38 -88 -121 -136 -185 -157
-213 -207 -293 -331 -521 -133 -245 -264 -620 -298 -850 -6 -41 -17 -106 -25
-145 -28 -141 -39 -413 -26 -665 6 -129 15 -264 20 -300 15 -113 42 -274 52
-315 6 -22 16 -67 24 -101 28 -123 107 -304 133 -304 10 0 45 85 88 215 20 61
41 121 47 135 5 14 27 72 47 130 115 319 115 319 252 600 45 91 92 190 106
220 44 100 56 125 67 140 6 8 26 49 45 90 19 41 37 77 40 80 3 3 17 28 30 55
14 28 30 57 36 65 6 8 23 35 36 60 14 25 36 63 49 85 12 22 33 60 46 85 13 24
27 46 31 50 10 7 62 88 62 96 0 4 7 14 15 23 9 9 37 49 63 89 26 40 62 89 79
110 17 20 43 51 56 67 55 66 35 9 -58 -165 -7 -14 -36 -72 -64 -130 -28 -58
-57 -116 -65 -130 -7 -14 -23 -45 -34 -70 -27 -60 -59 -127 -81 -170 -10 -19
-28 -55 -39 -80 -11 -25 -40 -88 -65 -140 -24 -52 -61 -133 -82 -180 -20 -47
-54 -121 -75 -165 -21 -44 -48 -109 -60 -145 -13 -36 -36 -96 -51 -135 -16
-38 -29 -74 -29 -78 0 -5 -7 -23 -15 -40 -33 -72 -97 -284 -145 -487 -33 -138
-60 -245 -75 -295 -8 -27 -19 -84 -25 -125 -6 -41 -19 -120 -30 -175 -24 -123
-51 -273 -53 -300 -3 -34 38 -31 64 4 12 16 42 44 68 62 25 19 93 72 150 119
57 47 115 94 130 105 178 133 428 367 546 510 31 39 67 79 80 91 12 11 55 61
95 110 40 49 88 105 107 124 19 19 93 118 166 219 73 102 149 207 169 235 125
170 398 605 398 632 0 4 17 34 37 67 20 33 55 102 78 154 24 51 47 99 52 105
27 34 131 339 202 588 82 292 122 550 141 913 12 221 42 397 87 514 26 69 140
385 173 479 25 71 156 324 183 354 12 14 56 66 98 115 42 50 117 129 167 178
107 102 109 101 -93 56z"/>
<path d="M5970 10570 c8 -5 24 -10 35 -10 11 0 36 -15 55 -33 35 -31 140 -167
169 -217 8 -14 32 -56 54 -95 22 -38 52 -88 67 -110 39 -57 263 -443 282 -485
109 -240 213 -522 243 -659 8 -36 24 -106 35 -155 11 -50 20 -100 20 -113 0
-13 4 -31 9 -41 5 -9 14 -37 21 -62 6 -25 16 -59 21 -76 5 -17 9 -40 9 -52 0
-12 9 -45 19 -74 11 -29 23 -69 26 -88 12 -56 39 -136 118 -345 7 -17 20 -43
30 -58 9 -14 17 -31 17 -37 0 -14 71 -147 121 -226 22 -34 39 -64 39 -68 0 -4
34 -58 75 -119 75 -112 142 -200 254 -332 33 -38 100 -117 149 -175 95 -112
337 -359 417 -425 26 -22 60 -51 74 -65 14 -14 49 -43 76 -65 28 -22 52 -44
54 -49 2 -5 19 -26 37 -46 19 -21 34 -42 34 -48 0 -7 12 -19 28 -29 15 -9 37
-27 50 -40 13 -13 27 -21 33 -18 5 4 9 2 9 -3 0 -10 83 -98 98 -103 6 -2 41
-33 79 -69 38 -36 110 -101 161 -144 51 -44 92 -84 92 -88 0 -5 11 -13 24 -18
13 -5 27 -18 31 -29 3 -12 11 -21 16 -21 5 0 9 -7 9 -16 0 -8 15 -21 33 -29
34 -14 167 -138 167 -155 0 -5 4 -10 10 -10 5 0 40 -32 77 -72 37 -39 102
-106 143 -147 107 -107 239 -256 290 -325 23 -32 63 -82 89 -110 25 -28 84
-104 131 -169 186 -257 401 -546 435 -583 19 -21 45 -53 58 -71 27 -39 47 -50
47 -24 0 68 -50 301 -90 421 -15 43 -67 211 -75 240 -1 3 -4 12 -7 20 -3 8
-14 42 -25 75 -12 33 -46 132 -78 220 -31 88 -65 187 -76 220 -11 33 -26 74
-34 90 -7 17 -38 84 -68 150 -30 66 -69 163 -87 215 -17 52 -59 154 -92 225
-33 72 -78 171 -99 220 -62 142 -177 372 -232 465 -27 47 -59 101 -70 120 -11
19 -27 47 -36 61 -9 15 -31 53 -50 85 -19 33 -50 81 -69 108 -19 27 -41 63
-48 80 -8 17 -23 45 -34 61 -11 17 -31 50 -45 75 -14 25 -35 61 -47 80 -11 19
-34 60 -51 90 -17 30 -53 91 -82 135 -71 110 -88 139 -170 283 -16 29 -72 118
-122 198 -51 80 -93 147 -93 149 0 2 -11 21 -25 41 -36 53 -31 60 16 22 58
-46 198 -205 285 -323 100 -136 502 -743 606 -915 25 -41 109 -205 188 -365
78 -159 151 -306 161 -326 11 -20 19 -41 19 -47 0 -6 20 -52 44 -104 24 -51
54 -118 66 -148 27 -65 52 -123 80 -183 11 -24 20 -46 20 -50 0 -6 71 -161 91
-199 5 -10 9 -24 9 -31 0 -7 14 -42 31 -77 68 -141 199 -540 199 -608 0 -49
25 -13 62 89 44 122 63 214 79 399 15 166 6 488 -15 580 -8 36 -18 128 -21
205 -7 172 -16 235 -60 447 -60 281 -196 722 -285 923 -95 213 -186 383 -285
535 -165 253 -174 266 -280 402 -33 42 -84 107 -112 145 -50 64 -77 94 -152
168 -17 17 -31 33 -31 37 0 9 -387 398 -397 398 -4 1 -37 30 -73 65 -35 36
-71 65 -80 65 -8 0 -21 9 -28 20 -7 11 -17 20 -22 20 -6 0 -27 17 -48 38 -32
32 -104 85 -240 179 -18 13 -36 23 -41 23 -4 0 -16 9 -26 20 -10 11 -23 20
-30 20 -6 0 -22 11 -35 25 -13 14 -53 44 -89 67 -36 23 -77 48 -90 57 -13 9
-36 24 -50 33 -14 10 -42 26 -61 36 -63 34 -144 79 -195 109 -27 16 -102 55
-165 86 -63 32 -122 62 -130 67 -8 5 -51 26 -95 46 -44 20 -88 44 -99 53 -10
9 -21 15 -25 14 -11 -4 -71 21 -71 29 0 4 -6 8 -14 8 -7 0 -65 24 -127 54
-535 252 -929 376 -1194 376 -49 0 -65 -3 -55 -10z"/>
</g>
</svg>
